<?xml version="1.0" encoding="utf-8"?>
<!-- Generator: Adobe Illustrator 15.0.0, SVG Export Plug-In . SVG Version: 6.00 Build 0)  -->
<!DOCTYPE svg PUBLIC "-//W3C//DTD SVG 1.1 Tiny//EN" "http://www.w3.org/Graphics/SVG/1.1/DTD/svg11-tiny.dtd">
<svg version="1.1" baseProfile="tiny" id="Layer_1" xmlns="http://www.w3.org/2000/svg" xmlns:xlink="http://www.w3.org/1999/xlink"
	 x="0px" y="0px" width="256px" height="256px" viewBox="0 0 256 256" xml:space="preserve">
<polyline fill="#7AAC34" stroke="#FBFBFB" stroke-width="3" points="0.846,194.233 0.846,0 256.847,0 256.847,256 0.846,256 
	0.846,194.233 "/>
<circle fill="#F8F8F8" stroke="#CC7C13" cx="130.334" cy="128.495" r="113.613"/>
<circle fill="#F4EB79" cx="130.334" cy="128.494" r="103.442"/>
<path fill="#F4A324" stroke="#CB5418" stroke-width="2" d="M88.163,76.401c0,0-2.977,1.984-2.479,4.712
	c0.497,2.73,1.984,4.467,4.712,4.715c2.729,0.247,4.465-0.497,4.465-0.497l7.441,16.87l-8.68,8.68c0,0-27.785-19.843-53.087,5.956
	l5.706,4.961c0,0-15.381,20.588,1.735,41.923c17.116,21.332,53.83,10.169,56.807-10.172l7.194-0.246c0,0,1.487,1.985,4.713,2.232
	l0.249,5.21h-2.234l-0.496,3.72l7.938,0.247l0.248-3.473h-1.984l0.495-6.699c0,0,8.435-1.241,6.202-10.665l24.807-22.327
	l3.969,1.488c0,0-8.682,6.699-4.96,27.039l2.48-0.494c0,0,2.977,14.637,17.611,21.828c14.637,7.195,31.007,2.48,34.977-1.735
	c3.971-4.218,15.878-13.396,13.396-33.488c-2.48-20.094-22.077-26.793-24.309-27.04c-2.233-0.248-9.427-0.991-9.427-0.991
	l0.247-2.232c0,0-10.419,0-13.396,1.24c-2.977,1.239-5.705-16.869-5.705-16.869l2.979-0.248l5.208,12.651l18.853-0.744
	l-0.247-25.798c0,0-19.847-3.474-25.552,5.457l0.249,3.721l-3.971,0.249l0.497-6.45l5.706-8.434v-7.938
	c0,0-10.171-2.232-12.65-0.249c-2.481,1.984-2.234,3.721-2.234,3.721h3.225c0,0,1.489,1.983,0,2.977
	c-1.489,0.993-13.395,1.24-13.395,1.24v2.73l6.449,2.977l6.945,15.379l-2.479,11.163l-11.907,15.628l0.247,3.721l-7.193,7.192
	l-14.635-0.989l-2.232-1.986h-5.458L100.318,85.58c0,0,3.721-2.977,5.209-2.977c1.489,0,6.202,0,6.202,0s3.225-3.721,1.24-3.721
	C110.985,78.882,88.163,76.401,88.163,76.401z"/>
<g>
	<path fill="#F4EB79" stroke="#D97011" d="M119.916,132.465l15.13,0.991l-8.433,5.954c0,0-1.488-3.475-6.451-3.475L119.916,132.465z
		"/>
	<path fill="#F4EB79" stroke="#D97011" d="M112.72,133.456l-0.247-0.656l-9.179-24.398l-5.705,5.707c0,0,7.192,6.697,9.674,18.604
		L112.72,133.456z"/>
	<path fill="#F4EB79" stroke="#D97011" d="M162.581,113.611l-3.968-3.473l4.961-6.698l3.225,6.698
		C166.799,110.138,164.814,111.378,162.581,113.611z"/>
	<path fill="#F4EB79" stroke="#D97011" d="M170.023,118.573l15.132,25.799l1.737,1.735l4.961-2.977l-6.698-7.195l-11.162-18.604
		c0,0,13.146-7.193,25.552,0.993c12.401,8.186,14.635,19.35,14.386,23.318c-0.247,3.968,1.241,15.877-12.898,23.069
		c-14.14,7.195-29.52,1.739-34.48-2.977c-4.961-4.712-11.658-17.614-8.436-30.265C158.116,131.471,163.576,122.294,170.023,118.573z
		"/>
	<path fill="#F4EB79" stroke="#D97011" d="M67.078,138.168l-14.884-11.906c0,0-9.921,5.956-5.953,21.087
		c3.967,15.132,15.628,17.857,18.107,18.852c2.482,0.991,17.365,2.977,24.559-2.479c7.195-5.46,9.427-11.162,9.427-11.162
		l-26.543-2.232C71.791,150.326,61.622,147.099,67.078,138.168z"/>
</g>
<path fill="none" stroke="#E30D4C" stroke-width="5" d="M1.94,205.772c48.102-31.349,108.126-14.183,161.222-11.726
	c30.278,1.398,65.407-0.01,92.843-14.085"/>
</svg>
